<svg width="24" height="20" viewBox="0 0 24 20" fill="none" xmlns="http://www.w3.org/2000/svg">
<path d="M0.258535 10.668C0.092916 10.4963 0 10.2644 0 10.0228C0 9.78111 0.092916 9.54922 0.258535 9.37756L6.18529 3.2906C6.26668 3.20089 6.36483 3.12894 6.47388 3.07904C6.58293 3.02914 6.70065 3.00231 6.82002 3.00014C6.93939 2.99798 7.05796 3.02053 7.16866 3.06645C7.27935 3.11237 7.37991 3.18072 7.46433 3.26742C7.54875 3.35413 7.6153 3.4574 7.66001 3.57109C7.70473 3.68478 7.72669 3.80655 7.72458 3.92915C7.72247 4.05174 7.69635 4.17265 7.64776 4.28465C7.59917 4.39665 7.52911 4.49745 7.44176 4.58104L3.03226 9.10973H19.111C19.3468 9.10973 19.5729 9.20593 19.7396 9.37716C19.9063 9.54839 20 9.78062 20 10.0228C20 10.2649 19.9063 10.4972 19.7396 10.6684C19.5729 10.8396 19.3468 10.9358 19.111 10.9358H3.03226L7.44176 15.4645C7.5988 15.6376 7.68429 15.8665 7.68023 16.1031C7.67616 16.3396 7.58286 16.5653 7.41998 16.7326C7.2571 16.8999 7.03735 16.9957 6.80703 16.9999C6.57672 17.004 6.35382 16.9162 6.18529 16.7549L0.258535 10.668Z" fill="currentColor"/>
</svg>
