<svg width="24" height="24" viewBox="0 0 24 24" fill="none" xmlns="http://www.w3.org/2000/svg">
<path d="M18.2262 7.90876C18.2709 7.9088 18.3147 7.89561 18.352 7.87085C18.3893 7.8461 18.4185 7.81087 18.4359 7.7696C18.4532 7.72833 18.458 7.68285 18.4496 7.63887C18.4412 7.59489 18.42 7.55437 18.3887 7.5224L13.9341 2.99285C13.9025 2.96071 13.862 2.93871 13.8178 2.92966C13.7736 2.92062 13.7277 2.92493 13.6859 2.94205C13.6442 2.95918 13.6085 2.98833 13.5834 3.02581C13.5583 3.06329 13.5449 3.1074 13.5449 3.15251V7.22694C13.5449 7.40777 13.6168 7.58119 13.7446 7.70906C13.8725 7.83693 14.0459 7.90876 14.2267 7.90876H18.2262Z" fill="#1F1F1F"/>
<path d="M12.4659 8.98864C12.2325 8.7584 12.0471 8.4842 11.9203 8.18187C11.7935 7.87955 11.7279 7.5551 11.7273 7.22727V2H7.63636C6.67282 2.00285 5.74955 2.38688 5.06821 3.06821C4.38688 3.74955 4.00285 4.67282 4 5.63636V18.3636C4 19.3281 4.38312 20.253 5.06507 20.9349C5.74702 21.6169 6.67194 22 7.63636 22H15.8182C16.7826 22 17.7075 21.6169 18.3895 20.9349C19.0714 20.253 19.4545 19.3281 19.4545 18.3636V9.72727H14.2273C13.8994 9.72684 13.5749 9.66132 13.2725 9.53453C12.9702 9.40774 12.696 9.22219 12.4659 8.98864Z" fill="#1F1F1F"/>
</svg>
