<svg width="24" height="24" viewBox="0 0 24 24" fill="none" xmlns="http://www.w3.org/2000/svg">
<path d="M4.5 3.32471C3.12109 3.32471 2 4.4458 2 5.82471V17.0747C2 18.4536 3.12109 19.5747 4.5 19.5747H19.5C20.8789 19.5747 22 18.4536 22 17.0747V9.57471C22 8.1958 20.8789 7.07471 19.5 7.07471H4.8125C4.29297 7.07471 3.875 6.65674 3.875 6.13721C3.875 5.61768 4.29297 5.19971 4.8125 5.19971H19.8125C20.332 5.19971 20.75 4.78174 20.75 4.26221C20.75 3.74268 20.332 3.32471 19.8125 3.32471H4.5ZM18.25 12.0747C18.9414 12.0747 19.5 12.6333 19.5 13.3247C19.5 14.0161 18.9414 14.5747 18.25 14.5747C17.5586 14.5747 17 14.0161 17 13.3247C17 12.6333 17.5586 12.0747 18.25 12.0747Z" fill="#1F1F1F"/>
</svg>
