<svg width="24" height="24" viewBox="0 0 24 24" fill="none" xmlns="http://www.w3.org/2000/svg">
<path d="M11.2637 22C11.0052 22 10.7811 21.9152 10.5915 21.7456C10.4011 21.5759 10.2829 21.3644 10.237 21.1111L9.94479 18.7867C9.58998 18.6793 9.20628 18.5111 8.79368 18.2822C8.38183 18.0526 8.03109 17.8067 7.74146 17.5444L5.61368 18.46C5.37887 18.5637 5.14035 18.5748 4.89813 18.4933C4.65591 18.4119 4.46924 18.2582 4.33813 18.0322L3.13924 15.9667C3.00813 15.7407 2.96961 15.5044 3.02368 15.2578C3.07776 15.0111 3.20665 14.8089 3.41035 14.6511L5.26813 13.2622C5.2348 13.0607 5.20776 12.8537 5.18702 12.6411C5.1648 12.4278 5.15368 12.2207 5.15368 12.02C5.15368 11.8333 5.1648 11.637 5.18702 11.4311C5.20776 11.2252 5.2348 10.9933 5.26813 10.7356L3.41035 9.34667C3.20665 9.18889 3.08146 8.98334 3.0348 8.73C2.98813 8.47667 3.02998 8.23667 3.16035 8.01L4.33813 6.01C4.46924 5.79741 4.65591 5.64704 4.89813 5.55889C5.14035 5.47075 5.37887 5.47852 5.61368 5.58223L7.72035 6.47556C8.0522 6.19926 8.41146 5.95 8.79813 5.72778C9.18331 5.50556 9.5585 5.33371 9.92368 5.21223L10.2381 2.88778C10.2833 2.63445 10.4011 2.42297 10.5915 2.25334C10.7818 2.08371 11.0059 1.99926 11.2637 2H13.5748C13.8333 2 14.0574 2.08482 14.247 2.25445C14.4374 2.42408 14.5555 2.63556 14.6015 2.88889L14.8937 5.23556C15.3196 5.38519 15.6959 5.55667 16.0226 5.75C16.3492 5.94334 16.6859 6.18556 17.0326 6.47667L19.2459 5.58334C19.4815 5.47963 19.7203 5.47186 19.9626 5.56C20.2048 5.64815 20.3911 5.79852 20.5215 6.01112L21.6992 8.03223C21.8303 8.25889 21.8689 8.49519 21.8148 8.74112C21.7607 8.98704 21.6318 9.18963 21.4281 9.34889L19.4859 10.8C19.5466 11.0296 19.5807 11.2404 19.5881 11.4322C19.5955 11.6241 19.5992 11.813 19.5992 11.9989C19.5992 12.1715 19.5918 12.3533 19.577 12.5444C19.5629 12.7363 19.5303 12.9682 19.4792 13.24L21.357 14.6511C21.5607 14.8089 21.6933 15.0111 21.7548 15.2578C21.8163 15.5044 21.7815 15.7407 21.6503 15.9667L20.4659 18.01C20.3355 18.2367 20.1455 18.3904 19.8959 18.4711C19.6463 18.5526 19.4041 18.5415 19.1692 18.4378L17.0326 17.5222C16.6866 17.8133 16.3385 18.0626 15.9881 18.27C15.6378 18.4774 15.2729 18.6422 14.8937 18.7644L14.6003 21.11C14.5552 21.3633 14.4374 21.5748 14.247 21.7444C14.0566 21.9141 13.8326 21.9993 13.5748 22H11.2637ZM12.3892 14.7778C13.1641 14.7778 13.8207 14.5085 14.3592 13.97C14.8978 13.4315 15.167 12.7748 15.167 12C15.167 11.2252 14.8978 10.5685 14.3592 10.03C13.8207 9.49149 13.1641 9.22223 12.3892 9.22223C11.61 9.22223 10.9522 9.49149 10.4159 10.03C9.87961 10.5685 9.61146 11.2252 9.61146 12C9.61146 12.7748 9.87961 13.4315 10.4159 13.97C10.9522 14.5085 11.61 14.7778 12.3892 14.7778Z" fill="#1F1F1F"/>
</svg>
