<svg width="24" height="24" viewBox="0 0 24 24" fill="none" xmlns="http://www.w3.org/2000/svg">
<path d="M5.9612 9.99114C5.96065 8.74357 6.34872 7.52682 7.07147 6.50994C7.79423 5.49306 8.81578 4.72656 9.99418 4.31695C9.94854 4.03105 9.96548 3.73865 10.0438 3.45993C10.1222 3.18121 10.26 2.9228 10.4479 2.70253C10.6358 2.48227 10.8693 2.30539 11.1322 2.1841C11.395 2.06281 11.6811 2 11.9706 2C12.2602 2 12.5462 2.06281 12.8091 2.1841C13.072 2.30539 13.3055 2.48227 13.4933 2.70253C13.6812 2.9228 13.8191 3.18121 13.8975 3.45993C13.9758 3.73865 13.9927 4.03105 13.9471 4.31695C15.1236 4.72824 16.143 5.49546 16.8639 6.5122C17.5847 7.52893 17.9713 8.74479 17.9701 9.99114V15.9956L20.9723 17.997V18.9978H2.95898V17.997L5.9612 15.9956V9.99114ZM13.9671 19.9985C13.9671 20.5293 13.7562 21.0384 13.3809 21.4138C13.0055 21.7891 12.4965 22 11.9656 22C11.4348 22 10.9257 21.7891 10.5504 21.4138C10.175 21.0384 9.96415 20.5293 9.96415 19.9985H13.9671Z" fill="#1F1F1F"/>
</svg>
