<svg width="16" height="16" viewBox="0 0 16 16" fill="none" xmlns="http://www.w3.org/2000/svg">
<path d="M8 3.5C7.65388 3.5 7.31554 3.39737 7.02775 3.20507C6.73997 3.01278 6.51566 2.73947 6.38321 2.4197C6.25076 2.09993 6.2161 1.74806 6.28363 1.40859C6.35115 1.06913 6.51782 0.757306 6.76256 0.512564C7.00731 0.267822 7.31913 0.101151 7.65859 0.0336265C7.99806 -0.0338976 8.34993 0.00075826 8.6697 0.133212C8.98947 0.265665 9.26278 0.489967 9.45507 0.777753C9.64736 1.06554 9.75 1.40388 9.75 1.75C9.7495 2.21398 9.56497 2.65881 9.23689 2.98689C8.90881 3.31497 8.46398 3.4995 8 3.5Z" fill="#1F1F1F"/>
<path d="M13.9234 3.02595L13.9082 3.02985L13.8941 3.03408C13.8604 3.04318 13.8268 3.05293 13.7931 3.063C13.1668 3.24045 10.127 4.06791 7.98553 4.06791C5.99548 4.06791 3.23068 3.35291 2.34622 3.11013C2.25819 3.07728 2.1683 3.04928 2.07697 3.02628C1.43752 2.86378 1 3.49103 1 4.06433C1 4.63211 1.52839 4.90251 2.06183 5.09654V5.10564L5.2665 6.07219C5.59397 6.19342 5.68148 6.31724 5.72422 6.42449C5.86321 6.76867 5.75215 7.45019 5.71277 7.6881L5.51757 9.1506L4.4342 14.8768C4.43084 14.8924 4.42781 14.9083 4.42512 14.9246L4.41738 14.9658C4.3393 15.4907 4.73845 16 5.49435 16C6.154 16 6.44512 15.5603 6.57133 14.9619C6.69753 14.3636 7.51368 9.8409 7.98486 9.8409C8.45603 9.8409 9.42666 14.9619 9.42666 14.9619C9.55286 15.5603 9.84398 16 10.5036 16C11.2616 16 11.6607 15.4884 11.5806 14.9619C11.5737 14.9177 11.5652 14.8737 11.555 14.83L10.4568 9.15125L10.262 7.68875C10.121 6.83692 10.2344 6.55547 10.2728 6.48949C10.2738 6.48794 10.2747 6.48631 10.2754 6.48462C10.3118 6.41962 10.4774 6.27402 10.8637 6.13394L13.8685 5.11961C13.887 5.11486 13.9052 5.10922 13.923 5.10271C14.4615 4.90771 15 4.63796 15 4.06498C15 3.49201 14.5628 2.86378 13.9234 3.02595Z" fill="#1F1F1F"/>
</svg>
