<svg width="24" height="24" viewBox="0 0 24 24" fill="none" xmlns="http://www.w3.org/2000/svg">
<path fill-rule="evenodd" clip-rule="evenodd" d="M18.9995 2V5H21.9995V9H18.9995V12H14.9995V9H11.9995V5H14.9995V2H18.9995ZM11.4095 15.22L9.96753 17.636C8.54534 16.6535 7.31308 15.4212 6.33053 13.999L8.74653 12.557L6.86753 5.982L1.01953 6.682L1.07053 7.619C1.20799 10.1105 1.91915 12.5366 3.14853 14.708C3.8693 15.9775 4.75835 17.1437 5.79153 18.175C6.8229 19.2078 7.98912 20.0965 9.25853 20.817C11.43 22.0464 13.856 22.7575 16.3475 22.895L17.2835 22.947L17.9845 17.099L11.4095 15.219V15.22Z" fill="#1F1F1F"/>
</svg>
