<svg width="24" height="24" viewBox="0 0 24 24" fill="none" xmlns="http://www.w3.org/2000/svg">
<path d="M11.9993 9C8.84927 9 5.99927 11.41 5.99927 15.15C5.99927 17.5 7.77927 20.26 11.3393 23.42C11.7093 23.75 12.2893 23.75 12.6693 23.42C16.2193 20.25 17.9993 17.5 17.9993 15.15C17.9993 11.41 15.1493 9 11.9993 9ZM11.9993 16.5C11.1693 16.5 10.4993 15.83 10.4993 15C10.4993 14.17 11.1693 13.5 11.9993 13.5C12.8293 13.5 13.4993 14.17 13.4993 15C13.4993 15.83 12.8293 16.5 11.9993 16.5ZM16.1793 6.82C15.8293 7.17 15.2893 7.2 14.8793 6.91C14.0693 6.34 13.0693 6 11.9993 6C10.9293 6 9.92927 6.34 9.11927 6.91C8.70927 7.19 8.16927 7.17 7.81927 6.82C7.38927 6.39 7.42927 5.67 7.90927 5.32C9.05927 4.49 10.4793 4 11.9993 4C13.5193 4 14.9393 4.49 16.0893 5.32C16.5793 5.67 16.6093 6.39 16.1793 6.82ZM4.96927 3.97C4.54927 3.54 4.58927 2.85 5.04927 2.47C6.94927 0.93 9.36927 0 12.0093 0C14.6493 0 17.0693 0.93 18.9593 2.48C19.4193 2.86 19.4593 3.55 19.0393 3.97C18.6793 4.33 18.1093 4.36 17.7193 4.04C16.1064 2.72162 14.0874 2.0014 12.0043 2.0014C9.92115 2.0014 7.9021 2.72162 6.28927 4.04C5.89927 4.36 5.32927 4.32 4.96927 3.97Z" fill="#1F1F1F"/>
</svg>
