<svg width="24" height="24" viewBox="0 0 24 24" fill="none" xmlns="http://www.w3.org/2000/svg">
<path d="M12 18.7583L4.67698 21.9019C4.41365 22.0059 4.16856 22.0272 3.94172 21.9658C3.71488 21.9034 3.52157 21.7925 3.3618 21.633C3.20202 21.4736 3.09156 21.2735 3.03041 21.0328C2.96926 20.7921 3.00033 20.5495 3.12361 20.3048L10.9156 2.71906C11.0201 2.47838 11.1735 2.29812 11.3757 2.17828C11.5779 2.05943 11.786 2 12 2C12.214 2 12.4221 2.05943 12.6243 2.17828C12.8265 2.29713 12.9794 2.47739 13.0829 2.71906L20.8764 20.3048C20.9997 20.5505 21.0307 20.7931 20.9696 21.0328C20.9075 21.2725 20.797 21.4726 20.6382 21.633C20.4794 21.7935 20.2861 21.9044 20.0583 21.9658C19.8305 22.0272 19.5854 22.0054 19.323 21.9004L12 18.7583Z" fill="#1F1F1F"/>
</svg>
