<svg width="20" height="20" viewBox="0 0 20 20" fill="none" xmlns="http://www.w3.org/2000/svg">
<path d="M16.8363 11.922C16.3997 11.4695 15.8732 11.2276 15.3152 11.2276C14.7616 11.2276 14.2306 11.4651 13.7761 11.9176L12.3539 13.3289C12.2369 13.2661 12.1199 13.2079 12.0074 13.1496C11.8454 13.069 11.6924 12.9928 11.5619 12.9122C10.2298 12.0699 9.01919 10.9722 7.85811 9.55197C7.29557 8.84409 6.91754 8.24821 6.64302 7.64337C7.01204 7.30735 7.35407 6.95789 7.68709 6.62186C7.8131 6.49642 7.93911 6.36649 8.06512 6.24104C9.01019 5.30018 9.01019 4.08154 8.06512 3.14068L6.83653 1.91756C6.69702 1.77867 6.55301 1.63531 6.418 1.49193C6.14798 1.21416 5.86446 0.927421 5.57194 0.658603C5.1354 0.228496 4.61336 0 4.06432 0C3.51528 0 2.98424 0.228496 2.53421 0.658603C2.52971 0.663083 2.52971 0.663083 2.52521 0.667564L0.995092 2.2043C0.419048 2.77778 0.0905237 3.47671 0.0185182 4.28764C-0.0894899 5.59588 0.297539 6.81451 0.594562 7.61201C1.32362 9.5699 2.4127 11.3844 4.03732 13.3289C6.00847 15.672 8.38015 17.5224 11.0893 18.8262C12.1244 19.3145 13.506 19.8925 15.0496 19.991C15.1442 19.9955 15.2432 20 15.3332 20C16.3727 20 17.2458 19.6281 17.9299 18.8889C17.9344 18.8799 17.9434 18.8755 17.9479 18.8665C18.1819 18.5842 18.4519 18.3289 18.7354 18.0556C18.9289 17.8719 19.127 17.6792 19.3205 17.4776C19.766 17.0161 20 16.4785 20 15.9274C20 15.3719 19.7615 14.8387 19.307 14.3907L16.8363 11.922ZM18.4474 16.6398C18.4429 16.6398 18.4429 16.6443 18.4474 16.6398C18.2719 16.828 18.0919 16.9982 17.8984 17.1864C17.6058 17.4642 17.3088 17.7554 17.0298 18.0824C16.5753 18.5663 16.0397 18.7948 15.3377 18.7948C15.2702 18.7948 15.1982 18.7948 15.1307 18.7903C13.7941 18.7052 12.552 18.1855 11.6204 17.7419C9.0732 16.5143 6.83653 14.7715 4.97789 12.5627C3.44328 10.7213 2.4172 9.01882 1.73765 7.19086C1.31912 6.07527 1.16611 5.20609 1.23361 4.3862C1.27861 3.86201 1.48113 3.42742 1.85466 3.05555L3.38927 1.52778C3.60979 1.32168 3.84381 1.20968 4.07332 1.20968C4.35685 1.20968 4.58636 1.37993 4.73037 1.5233C4.73487 1.52778 4.73937 1.53226 4.74387 1.53674C5.01839 1.79212 5.27941 2.05645 5.55394 2.33871C5.69345 2.48208 5.83746 2.62545 5.98147 2.7733L7.21006 3.99642C7.6871 4.47133 7.6871 4.9104 7.21006 5.3853C7.07955 5.51523 6.95354 5.64516 6.82303 5.77061C6.445 6.15592 6.08498 6.51434 5.69345 6.8638C5.68445 6.87276 5.67544 6.87724 5.67094 6.8862C5.28391 7.27151 5.35592 7.64785 5.43693 7.90323C5.44143 7.91667 5.44593 7.93011 5.45043 7.94355C5.76995 8.71416 6.21999 9.43996 6.90404 10.3047L6.90854 10.3091C8.15063 11.8324 9.46023 13.0197 10.9048 13.9292C11.0894 14.0457 11.2784 14.1398 11.4584 14.2294C11.6204 14.31 11.7734 14.3862 11.9039 14.4668C11.9219 14.4758 11.9399 14.4893 11.9579 14.4982C12.1109 14.5744 12.2549 14.6102 12.4035 14.6102C12.777 14.6102 13.011 14.3772 13.0875 14.3011L14.6266 12.7688C14.7796 12.6165 15.0226 12.4328 15.3062 12.4328C15.5852 12.4328 15.8147 12.6075 15.9542 12.7599C15.9587 12.7643 15.9587 12.7643 15.9632 12.7688L18.4429 15.2375C18.9064 15.6944 18.9064 16.1649 18.4474 16.6398Z" fill="#1F1F1F"/>
</svg>
