<svg width="25" height="24" viewBox="0 0 25 24" fill="none" xmlns="http://www.w3.org/2000/svg">
<path d="M8.50678 3C7.3495 3 6.40601 3.94349 6.40601 5.10077V13.4574C6.40601 14.6147 7.3495 15.5581 8.50678 15.5581H17.9231L20.5769 18.6303C20.7396 18.8162 20.9673 18.9231 21.2136 18.9231C21.6784 18.9231 22.0595 18.5466 22.0595 18.0819V15.5628H22.6591C23.8164 15.5628 24.7599 14.6193 24.7599 13.462V5.10077C24.7599 3.94349 23.8164 3 22.6591 3H8.50678ZM23.6165 5.10077V13.4574C23.6165 13.9872 23.1843 14.4194 22.6544 14.4194H21.4879C21.1718 14.4194 20.9162 14.6751 20.9162 14.9911V17.2824L18.6109 14.6193C18.504 14.4938 18.346 14.4241 18.1787 14.4241H8.50678C7.97694 14.4241 7.5447 13.9919 7.5447 13.462V5.10077C7.5447 4.57093 7.97694 4.13869 8.50678 4.13869H22.6544C23.1843 4.13869 23.6165 4.57093 23.6165 5.10077Z" fill="#1F1F1F" stroke="#1F1F1F" stroke-width="0.15"/>
<path d="M5.24876 22.3065C5.34636 22.3437 5.44861 22.3623 5.54621 22.3623C5.78324 22.3623 6.01563 22.2601 6.1783 22.0695L8.83215 18.9973H17.1237C17.4397 18.9973 17.6953 18.7417 17.6953 18.4257C17.6953 18.1096 17.4397 17.854 17.1237 17.854H8.57187C8.40456 17.854 8.25118 17.9237 8.13964 18.0492L5.83902 20.7217V18.4303C5.83902 18.1143 5.58339 17.8587 5.26735 17.8587H4.10077C3.57093 17.8587 3.13869 17.4264 3.13869 16.8966V8.53998C3.13869 8.01014 3.57093 7.57791 4.10077 7.57791C4.41681 7.57791 4.67244 7.32228 4.67244 7.00622C4.67244 6.6902 4.41681 6.43921 4.10077 6.43921C2.94349 6.43921 2 7.38271 2 8.53998V16.8966C2 18.0539 2.94349 18.9973 4.10077 18.9973H4.70033V21.5164C4.70033 21.8743 4.91412 22.1857 5.24876 22.3065Z" fill="#1F1F1F" stroke="#1F1F1F" stroke-width="0.15"/>
<circle cx="15.5807" cy="9.47886" r="0.678567" fill="#1F1F1F" stroke="#1F1F1F" stroke-width="0.15"/>
<circle cx="13.308" cy="9.47886" r="0.678567" fill="#1F1F1F" stroke="#1F1F1F" stroke-width="0.15"/>
<circle cx="17.8534" cy="9.47886" r="0.678567" fill="#1F1F1F" stroke="#1F1F1F" stroke-width="0.15"/>
</svg>
