<svg width="32" height="32" viewBox="0 0 32 32" fill="none" xmlns="http://www.w3.org/2000/svg">
<path fill-rule="evenodd" clip-rule="evenodd" d="M6.87722 9.73432H9.92852V11.3912C9.92852 11.68 10.1626 11.9141 10.4514 11.9141C10.7402 11.9141 10.9743 11.68 10.9743 11.3912V9.73432H16.451V11.3912C16.451 11.68 16.6851 11.9141 16.9739 11.9141C17.2627 11.9141 17.4968 11.68 17.4968 11.3912V9.73432H20.5481C20.7112 9.73394 20.8685 9.79471 20.989 9.90464C21.1095 10.0146 21.1844 10.1657 21.1989 10.3281L21.6909 15.6798C21.4557 15.6553 21.2194 15.6431 20.9829 15.643C17.2463 15.643 14.2171 18.6722 14.2171 22.4089C14.2171 23.3279 14.4007 24.204 14.7326 25.0029H6.2806C5.90756 25.0029 5.58642 24.8612 5.33502 24.5856C5.08358 24.31 4.97188 23.9772 5.006 23.6057L6.22636 10.3281C6.24091 10.1657 6.31582 10.0146 6.43631 9.90464C6.5568 9.79471 6.71412 9.73394 6.87722 9.73432ZM9.92852 9.64823V7.7841C9.92852 6.74293 10.3541 5.79677 11.0397 5.11116C11.7253 4.42555 12.6715 4 13.7126 4C14.7538 4 15.6999 4.42555 16.3856 5.11116C17.0712 5.79677 17.4967 6.74298 17.4967 7.7841V9.64823H16.451V7.7841C16.451 7.03163 16.1427 6.34709 15.6462 5.85057C15.1496 5.35399 14.4651 5.04577 13.7126 5.04577C12.9601 5.04577 12.2757 5.35399 11.7791 5.85057C11.2825 6.34709 10.9743 7.03158 10.9743 7.7841V9.64823H9.92852ZM20.9829 16.8178C17.895 16.8178 15.3918 19.321 15.3918 22.4089C15.3918 25.4968 17.895 28 20.9829 28C24.0707 28 26.574 25.4968 26.574 22.4089C26.574 19.321 24.0707 16.8178 20.9829 16.8178ZM18.2499 22.7399L19.9227 24.2761C20.1571 24.4918 20.5199 24.4803 20.7403 24.253L23.7251 21.3952C23.9582 21.171 23.9654 20.8001 23.7411 20.5669C23.5169 20.3338 23.146 20.3266 22.9128 20.5509L20.3116 23.0415L19.0438 21.8772C18.8056 21.658 18.4347 21.6735 18.2155 21.9116C17.9963 22.1498 18.0117 22.5207 18.2499 22.7399Z" fill="#1F1F1F"/>
</svg>
