<svg width="14" height="14" viewBox="0 0 14 14" fill="none" xmlns="http://www.w3.org/2000/svg">
<g clip-path="url(#clip0_120_557)">
<path d="M1.9045 0H1.8928C1.83848 0.00114844 1.78481 0.0121256 1.7344 0.0324C1.66151 0.061259 1.59742 0.108661 1.54848 0.169911C1.49954 0.231161 1.46746 0.304134 1.4554 0.3816C1.441 0.4662 1 3.2355 1 4.5C1 5.355 1.3978 6.1173 2.017 6.6105C2.242 6.7914 2.35 6.9876 2.35 7.1514V7.6014C2.35 7.6176 2.3491 7.6338 2.3473 7.65C2.323 7.884 2.2114 8.9361 2.1061 10.0179C2.0026 11.0844 1.9 12.2229 1.9 12.6C1.9 13.0774 2.08964 13.5352 2.42721 13.8728C2.76477 14.2104 3.22261 14.4 3.7 14.4C4.17739 14.4 4.63523 14.2104 4.97279 13.8728C5.31036 13.5352 5.5 13.0774 5.5 12.6C5.5 12.222 5.3974 11.0844 5.2939 10.0179C5.21695 9.22855 5.13655 8.43954 5.0527 7.6509L5.05 7.6014V7.1514C5.05 6.9867 5.158 6.7914 5.383 6.6105C5.70015 6.35769 5.95626 6.03667 6.13233 5.6713C6.30839 5.30593 6.39988 4.90558 6.4 4.5C6.4 3.2328 5.9563 0.4509 5.9446 0.3807C5.93137 0.296113 5.89427 0.217057 5.83768 0.152812C5.78109 0.0885668 5.70734 0.0417996 5.6251 0.018C5.58735 0.00695211 5.54832 0.000900567 5.509 0H5.491H5.4919C5.37198 0.000949859 5.2573 0.0492536 5.17284 0.134386C5.08839 0.219519 5.041 0.33458 5.041 0.4545V4.0545C5.04224 4.113 5.03195 4.17118 5.0107 4.2257C4.98946 4.28023 4.95769 4.33004 4.9172 4.37228C4.87671 4.41453 4.82829 4.44839 4.77472 4.47192C4.72114 4.49546 4.66345 4.50821 4.60495 4.50945C4.54645 4.51069 4.48827 4.5004 4.43374 4.47915C4.37922 4.45791 4.32941 4.42614 4.28717 4.38565C4.24492 4.34516 4.21106 4.29674 4.18753 4.24317C4.16399 4.18959 4.15124 4.1319 4.15 4.0734V0.45C4.15 0.330653 4.10259 0.216193 4.0182 0.131802C3.93381 0.0474107 3.81935 0 3.7 0C3.58065 0 3.46619 0.0474107 3.3818 0.131802C3.29741 0.216193 3.25 0.330653 3.25 0.45V4.05L3.2509 4.0788C3.24768 4.19695 3.19765 4.30899 3.11182 4.39026C3.026 4.47153 2.9114 4.51537 2.79325 4.51215C2.6751 4.50893 2.56306 4.4589 2.48179 4.37307C2.40052 4.28725 2.35668 4.17265 2.3599 4.0545V0.4554C2.3599 0.334776 2.31204 0.219079 2.22683 0.133701C2.14163 0.048323 2.02512 0.000238387 1.9045 0ZM7.75 4.05C7.75 2.97587 8.1767 1.94574 8.93622 1.18622C9.69574 0.426695 10.7259 0 11.8 0C11.9193 0 12.0338 0.0474107 12.1182 0.131802C12.2026 0.216193 12.25 0.330653 12.25 0.45V6.7302L12.268 6.9318C12.3381 7.74045 12.4065 8.54925 12.4732 9.3582C12.5848 10.7145 12.7 12.2031 12.7 12.6C12.7 13.0774 12.5104 13.5352 12.1728 13.8728C11.8352 14.2104 11.3774 14.4 10.9 14.4C10.4226 14.4 9.96477 14.2104 9.62721 13.8728C9.28964 13.5352 9.1 13.0774 9.1 12.6C9.1 12.204 9.2152 10.7145 9.3268 9.3582C9.3826 8.6733 9.4393 8.0109 9.4816 7.5204L9.5086 7.2H9.1C8.74196 7.2 8.39858 7.05777 8.14541 6.80459C7.89223 6.55142 7.75 6.20804 7.75 5.85V4.05Z" fill="#CFFF04"/>
</g>
<defs>
<clipPath id="clip0_120_557">
<rect width="14" height="14" fill="white"/>
</clipPath>
</defs>
</svg>
