<svg width="14" height="14" viewBox="0 0 14 14" fill="none" xmlns="http://www.w3.org/2000/svg">
<g clip-path="url(#clip0_120_1553)">
<path d="M0.350098 12.5999V5.39995C0.350098 5.14662 0.407785 4.90662 0.52316 4.67995C0.638535 4.45328 0.797514 4.26662 1.0001 4.11995L5.8751 0.519951C6.15947 0.306618 6.48447 0.199951 6.8501 0.199951C7.21572 0.199951 7.54072 0.306618 7.8251 0.519951L12.7001 4.11995C12.9032 4.26662 13.0625 4.45328 13.1778 4.67995C13.2932 4.90662 13.3506 5.14662 13.3501 5.39995V12.5999C13.3501 13.0399 13.1908 13.4167 12.8723 13.7303C12.5538 14.0439 12.1714 14.2005 11.7251 14.1999H9.2876C9.05739 14.1999 8.86455 14.1231 8.7091 13.9695C8.55364 13.8159 8.47564 13.6261 8.4751 13.3999V9.39995C8.4751 9.17328 8.3971 8.98342 8.2411 8.83035C8.0851 8.67728 7.89226 8.60048 7.6626 8.59995H6.0376C5.80739 8.59995 5.61455 8.67675 5.4591 8.83035C5.30364 8.98395 5.22564 9.17382 5.2251 9.39995V13.3999C5.2251 13.6266 5.1471 13.8167 4.9911 13.9703C4.8351 14.1239 4.64226 14.2005 4.4126 14.1999H1.9751C1.52822 14.1999 1.14581 14.0434 0.827847 13.7303C0.509889 13.4173 0.350639 13.0405 0.350098 12.5999Z" fill="#1F1F1F"/>
</g>
<defs>
<clipPath id="clip0_120_1553">
<rect width="14" height="14" fill="white"/>
</clipPath>
</defs>
</svg>
