<svg width="30" height="30" viewBox="0 0 30 30" fill="none" xmlns="http://www.w3.org/2000/svg">
<rect width="30" height="30" rx="15" fill="#1F1F1F"/>
<path d="M21.4323 17.9109L19.17 17.6526C18.904 17.6214 18.6343 17.6508 18.3813 17.7388C18.1283 17.8267 17.8986 17.9708 17.7093 18.1603L16.0704 19.7992C13.5421 18.513 11.487 16.4579 10.2008 13.9295L11.8486 12.2818C12.2316 11.8988 12.4186 11.3644 12.3563 10.821L12.098 8.57652C12.0477 8.14194 11.8392 7.74107 11.5123 7.45033C11.1854 7.15958 10.763 6.99929 10.3255 7H8.78464C7.77817 7 6.94092 7.83725 7.00327 8.84372C7.47533 16.4502 13.5587 22.5247 21.1562 22.9967C22.1627 23.0591 22.9999 22.2218 22.9999 21.2154V19.6745C23.0088 18.7749 22.3319 18.0178 21.4323 17.9109Z" fill="#CFFF04"/>
</svg>
