<svg width="18" height="18" viewBox="0 0 18 18" fill="none" xmlns="http://www.w3.org/2000/svg">
<path d="M9.00001 1.5C5.69251 1.5 3.00001 4.1925 3.00001 7.5C2.97751 12.33 8.34001 16.2 8.56501 16.365C8.69251 16.455 8.85001 16.5075 9.00001 16.5075C9.15001 16.5075 9.30751 16.4625 9.43501 16.365C9.66001 16.2 15.0225 12.3375 15 7.5C15 4.1925 12.3075 1.5 9.00001 1.5ZM9.00001 10.5C7.34251 10.5 6.00001 9.1575 6.00001 7.5C6.00001 5.8425 7.34251 4.5 9.00001 4.5C10.6575 4.5 12 5.8425 12 7.5C12 9.1575 10.6575 10.5 9.00001 10.5Z" fill="#1F1F1F" fill-opacity="0.7"/>
</svg>
