<svg width="32" height="32" viewBox="0 0 32 32" fill="none" xmlns="http://www.w3.org/2000/svg">
<path d="M20.4214 4.89079C19.2988 3.67147 17.7307 3 16 3C14.26 3 12.6868 3.66741 11.5694 4.87919C10.4398 6.10431 9.8894 7.76935 10.0186 9.56728C10.2748 13.1144 12.958 15.9999 16 15.9999C19.042 15.9999 21.7206 13.115 21.9808 9.56844C22.1118 7.78676 21.5579 6.12521 20.4214 4.89079ZM26.1536 28.9998H5.84643C5.58063 29.0033 5.3174 28.9472 5.07589 28.8354C4.83439 28.7237 4.62068 28.5592 4.45032 28.3539C4.07533 27.903 3.92418 27.2872 4.0361 26.6645C4.52301 23.9473 6.04258 21.6648 8.43098 20.0624C10.5528 18.64 13.2407 17.8571 16 17.8571C18.7593 17.8571 21.4472 18.6405 23.569 20.0624C25.9574 21.6642 27.477 23.9467 27.9639 26.6639C28.0758 27.2866 27.9247 27.9024 27.5497 28.3533C27.3794 28.5587 27.1657 28.7233 26.9242 28.8352C26.6827 28.947 26.4194 29.0033 26.1536 28.9998Z" fill="#1F1F1F"/>
</svg>
