<svg width="32" height="32" viewBox="0 0 32 32" fill="none" xmlns="http://www.w3.org/2000/svg">
<path d="M17.8124 4.84049L27.4882 21.5988C27.6357 21.8544 27.7134 22.1442 27.7134 22.4393C27.7134 22.7344 27.6357 23.0242 27.4882 23.2798C27.3407 23.5353 27.1285 23.7475 26.8729 23.8951C26.6174 24.0426 26.3275 24.1203 26.0325 24.1203H6.68094C6.38587 24.1203 6.096 24.0426 5.84047 23.8951C5.58493 23.7475 5.37273 23.5353 5.2252 23.2798C5.07767 23.0242 5 22.7344 5 22.4393C5 22.1442 5.07767 21.8544 5.22521 21.5988L14.901 4.84049C15.5476 3.71984 17.1647 3.71984 17.8124 4.84049ZM16.3567 18.1225C16.0595 18.1225 15.7744 18.2406 15.5643 18.4508C15.3541 18.6609 15.236 18.946 15.236 19.2432C15.236 19.5404 15.3541 19.8255 15.5643 20.0356C15.7744 20.2458 16.0595 20.3638 16.3567 20.3638C16.6539 20.3638 16.939 20.2458 17.1491 20.0356C17.3593 19.8255 17.4774 19.5404 17.4774 19.2432C17.4774 18.946 17.3593 18.6609 17.1491 18.4508C16.939 18.2406 16.6539 18.1225 16.3567 18.1225ZM16.3567 10.2779C16.0822 10.278 15.8173 10.3787 15.6122 10.5611C15.407 10.7435 15.276 10.9949 15.2439 11.2675L15.236 11.3986V15.8812C15.2364 16.1669 15.3457 16.4416 15.5418 16.6493C15.7379 16.857 16.0059 16.982 16.291 16.9987C16.5762 17.0154 16.8569 16.9227 17.076 16.7393C17.295 16.556 17.4358 16.296 17.4695 16.0123L17.4774 15.8812V11.3986C17.4774 11.1014 17.3593 10.8163 17.1491 10.6062C16.939 10.396 16.6539 10.2779 16.3567 10.2779Z" fill="#1F1F1F"/>
</svg>
