<svg width="80" height="80" viewBox="0 0 80 80" fill="none" xmlns="http://www.w3.org/2000/svg">
<path fill-rule="evenodd" clip-rule="evenodd" d="M37.6595 2.80643C38.3278 2.28419 39.1515 2.00049 39.9995 2.00049C40.8476 2.00049 41.6713 2.28419 42.3395 2.80643L48.6451 7.73443L56.5699 6.61923C57.4098 6.50092 58.2652 6.66701 58.9998 7.09106C59.7344 7.51511 60.3059 8.17274 60.6235 8.95923L63.6195 16.38L71.0403 19.3768C71.8267 19.6944 72.4842 20.2659 72.9082 21.0003C73.3323 21.7347 73.4985 22.5899 73.3803 23.4296L72.2651 31.3544L77.1931 37.66C77.7154 38.3282 77.9991 39.1519 77.9991 40C77.9991 40.8481 77.7154 41.6718 77.1931 42.34L72.2651 48.6456L73.3803 56.5704C73.4986 57.4103 73.3326 58.2657 72.9085 59.0003C72.4845 59.7348 71.8268 60.3064 71.0403 60.624L63.6195 63.62L60.6235 71.0408C60.3059 71.8273 59.7344 72.4849 58.9998 72.909C58.2652 73.333 57.4098 73.4991 56.5699 73.3808L48.6451 72.2656L42.3395 77.1936C41.6713 77.7159 40.8476 77.9996 39.9995 77.9996C39.1515 77.9996 38.3278 77.7159 37.6595 77.1936L31.3539 72.2656L23.4291 73.3808C22.5894 73.4989 21.7342 73.3328 20.9998 72.9087C20.2654 72.4847 19.6939 71.8272 19.3763 71.0408L16.3795 63.62L8.95874 60.624C8.17225 60.3064 7.51462 59.7348 7.09057 59.0003C6.66652 58.2657 6.50043 57.4103 6.61874 56.5704L7.73394 48.6456L2.80594 42.34C2.2837 41.6718 2 40.8481 2 40C2 39.1519 2.2837 38.3282 2.80594 37.66L7.73394 31.3544L6.61874 23.4296C6.50062 22.5899 6.66681 21.7347 7.09084 21.0003C7.51488 20.2659 8.1724 19.6944 8.95874 19.3768L16.3795 16.38L19.3763 8.95923C19.6939 8.17289 20.2654 7.51537 20.9998 7.09133C21.7342 6.66729 22.5894 6.50111 23.4291 6.61923L31.3539 7.73443L37.6595 2.80643ZM54.0867 35.0864C54.7969 34.3732 55.1951 33.4074 55.194 32.401C55.1929 31.3945 54.7925 30.4296 54.0808 29.718C53.3691 29.0064 52.4041 28.6062 51.3976 28.6052C50.3912 28.6042 49.4254 29.0026 48.7123 29.7128L36.1995 42.2264L31.2867 37.3128C30.5741 36.6001 29.6074 36.1998 28.5995 36.1998C27.5916 36.1998 26.625 36.6001 25.9123 37.3128C25.1996 38.0255 24.7993 38.9921 24.7993 40C24.7993 41.0079 25.1996 41.9745 25.9123 42.6872L33.5123 50.2872C33.8652 50.6401 34.2841 50.9201 34.7452 51.1111C35.2063 51.3021 35.7005 51.4004 36.1995 51.4004C36.6986 51.4004 37.1928 51.3021 37.6539 51.1111C38.1149 50.9201 38.5339 50.6401 38.8867 50.2872L54.0867 35.0864Z" fill="#6DB554"/>
</svg>
