<svg width="17" height="18" viewBox="0 0 17 18" fill="none" xmlns="http://www.w3.org/2000/svg">
<path d="M8.01709 18C7.72559 18 7.43848 17.9231 7.18604 17.7778L0.831055 14.1077C0.318359 13.8118 0 13.2607 0 12.6694V5.33081C0 4.7395 0.318359 4.18799 0.831055 3.8916L7.18604 0.222168C7.43848 0.0769043 7.72607 0 8.01709 0C8.30811 0 8.59521 0.0769043 8.84766 0.222168L15.2026 3.8916C15.7148 4.18799 16.0332 4.7395 16.0332 5.33081V12.6694C16.0332 13.2607 15.7148 13.8118 15.2026 14.1077L8.84766 17.7778C8.5957 17.9231 8.30811 18 8.01709 18ZM4.85254 8.14819C4.72656 8.14819 4.61768 8.19312 4.53027 8.28174L3.8833 8.92773C3.79492 9.01587 3.75049 9.12476 3.75049 9.25098C3.75049 9.37817 3.79492 9.48682 3.8833 9.57446L6.19336 11.8843L6.83936 12.531C6.92822 12.6191 7.03662 12.6638 7.1626 12.6638C7.28857 12.6638 7.39746 12.6191 7.48584 12.531L8.13232 11.8843L13.3408 6.67603C13.4292 6.58765 13.4736 6.479 13.4736 6.35254C13.4736 6.22705 13.4292 6.11816 13.3408 6.0293L12.6943 5.3833C12.6064 5.29468 12.4976 5.24976 12.3711 5.24976C12.2451 5.24976 12.1362 5.29468 12.0474 5.3833L7.1626 10.2729L5.17578 8.28174C5.08789 8.19312 4.979 8.14819 4.85254 8.14819Z" fill="#4285F4"/>
</svg>
