<svg width="18" height="18" viewBox="0 0 18 18" fill="none" xmlns="http://www.w3.org/2000/svg">
<path d="M2.01562 18C1.45312 18 0.976562 17.8049 0.585938 17.4141C0.194824 17.0232 0 16.5468 0 15.9845V2.01562C0 1.45264 0.194824 0.976074 0.585938 0.585938C0.976562 0.195068 1.45312 0 2.01562 0H15.9854C16.5474 0 17.0239 0.195068 17.415 0.585938C17.8047 0.976074 18.0005 1.45264 18.0005 2.01562V15.9845C18.0005 16.5468 17.8047 17.0232 17.415 17.4141C17.0239 17.8049 16.5474 18 15.9854 18H2.01562ZM2.01562 15.9845H15.9854V2.01562H2.01562V15.9845ZM9.03711 10.1084L7.07227 12.0734L6 11.0015L7.96533 9.03638L6 7.07153L7.07227 5.99951L9.03711 7.96448L11.0381 5.99951L12.1089 7.07153L10.1094 9.03638L12.1089 11.0015L11.0381 12.0734L9.03711 10.1084Z" fill="#D51E1E"/>
</svg>
