<svg width="32" height="32" viewBox="0 0 32 32" fill="none" xmlns="http://www.w3.org/2000/svg">
<path d="M10.3125 21.6875C13.4536 24.8286 18.5464 24.8286 21.6875 21.6875C24.8286 18.5464 24.8286 13.4536 21.6875 10.3125C18.5464 7.17138 13.4536 7.17138 10.3125 10.3125C7.17138 13.4536 7.17138 18.5464 10.3125 21.6875Z" stroke="#1F1F1F" stroke-width="2.7"/>
<path d="M14.375 17.625C15.2725 18.5225 16.7275 18.5225 17.625 17.625C18.5225 16.7275 18.5225 15.2725 17.625 14.375C16.7275 13.4775 15.2725 13.4775 14.375 14.375C13.4775 15.2725 13.4775 16.7275 14.375 17.625Z" fill="#1F1F1F" stroke="#1F1F1F" stroke-width="2.7"/>
<path d="M16 7.95625V3M24.0438 16L29 16M16 29V24.0438M3 16L7.95625 16" stroke="#1F1F1F" stroke-width="2.7" stroke-linecap="round"/>
</svg>
