<svg width="18" height="18" viewBox="0 0 18 18" fill="none" xmlns="http://www.w3.org/2000/svg">
<path d="M2.63466 2.64084C4.3911 0.880283 6.51288 0 9 0C11.4871 0 13.6089 0.880283 15.3653 2.64084C17.1218 4.40141 18 6.52113 18 9C18 11.4789 17.1218 13.5986 15.3653 15.3592C13.6089 17.1197 11.4871 18 9 18C6.51288 18 4.3911 17.1197 2.63466 15.3592C0.87822 13.5986 0 11.4789 0 9C0 6.52113 0.87822 4.40141 2.63466 2.64084ZM12.815 14.4085L11.8033 10.0563L15.1335 7.14085L10.7073 6.76056L8.97892 2.70422L7.25059 6.80282L2.82436 7.14085L6.19672 10.0563L5.18501 14.4085L8.97892 12.1268L12.815 14.4085Z" fill="#F3D114"/>
</svg>
