<svg width="32" height="32" viewBox="0 0 32 32" fill="none" xmlns="http://www.w3.org/2000/svg">
<path d="M11.9285 28V18.8326C11.4719 18.7668 11.0478 18.7334 10.6364 18.6411C7.90786 18.0304 6.01488 15.6701 6.00408 12.8729C5.99623 11.0123 6.00212 9.15268 6.00212 7.29111V6.98969H8.96727V7.38733C8.96727 9.15562 8.9653 10.9239 8.96825 12.6912C8.97217 14.595 10.2122 15.836 12.118 15.838C13.3325 15.839 14.548 15.838 15.7635 15.838C17.414 15.837 19.0635 15.8351 20.7149 15.8409C23.7311 15.8508 26.0924 17.8311 26.6305 20.7963C26.6874 21.1124 26.711 21.4394 26.713 21.7614C26.7198 23.6328 26.7159 25.5052 26.7159 27.3765C26.7159 27.4561 26.7061 27.5346 26.6992 27.6367H23.7518V27.2597C23.7518 25.4109 23.7635 23.5611 23.7478 21.7133C23.7341 20.1748 22.5647 18.9386 21.037 18.8051C20.9702 18.8002 20.9025 18.8041 20.7837 18.8041V28H11.9285ZM16.1347 12.8709C14.1013 12.7904 12.333 11.2243 11.9815 9.19195C11.5672 6.80314 13.1695 4.50859 15.5554 4.07069C15.632 4.05596 15.7056 4.02455 15.7792 4H16.8887C17.3796 4.16004 17.8971 4.26411 18.3556 4.48895C20.2299 5.40795 21.1764 7.53854 20.6462 9.55916C20.1279 11.5363 18.3692 12.8744 16.322 12.8746C16.2597 12.8746 16.1975 12.8734 16.1347 12.8709Z" fill="#1F1F1F"/>
</svg>
