<svg width="20" height="17" viewBox="0 0 20 17" fill="none" xmlns="http://www.w3.org/2000/svg">
<path fill-rule="evenodd" clip-rule="evenodd" d="M1.46341 14.0652C1.85154 14.0652 2.22376 14.2198 2.49821 14.495C2.77265 14.7702 2.92683 15.1434 2.92683 15.5326C2.92683 15.9218 2.77265 16.295 2.49821 16.5702C2.22376 16.8454 1.85154 17 1.46341 17C1.07529 17 0.703068 16.8454 0.428624 16.5702C0.154181 16.295 0 15.9218 0 15.5326C0 15.1434 0.154181 14.7702 0.428624 14.495C0.703068 14.2198 1.07529 14.0652 1.46341 14.0652ZM19.0234 14.5543C19.5629 14.5543 20 14.9887 20 15.5326C20 16.0731 19.5659 16.5109 19.0234 16.5109H5.36683C5.23856 16.5113 5.11147 16.4862 4.99288 16.4372C4.87428 16.3882 4.76651 16.3162 4.67576 16.2253C4.58502 16.1344 4.51308 16.0264 4.46408 15.9075C4.41508 15.7886 4.38999 15.6612 4.39024 15.5326C4.39024 14.9921 4.82439 14.5543 5.36683 14.5543H19.0234ZM1.46341 7.03261C1.85154 7.03261 2.22376 7.18721 2.49821 7.4624C2.77265 7.73759 2.92683 8.11082 2.92683 8.5C2.92683 8.88918 2.77265 9.26241 2.49821 9.5376C2.22376 9.81279 1.85154 9.96739 1.46341 9.96739C1.07529 9.96739 0.703068 9.81279 0.428624 9.5376C0.154181 9.26241 0 8.88918 0 8.5C0 8.11082 0.154181 7.73759 0.428624 7.4624C0.703068 7.18721 1.07529 7.03261 1.46341 7.03261ZM19.0234 7.52174C19.5629 7.52174 20 7.95609 20 8.5C20 9.04049 19.5659 9.47826 19.0234 9.47826H5.36683C5.23856 9.47865 5.11147 9.45362 4.99288 9.4046C4.87428 9.35559 4.76651 9.28356 4.67576 9.19266C4.58502 9.10175 4.51308 8.99377 4.46408 8.8749C4.41508 8.75603 4.38999 8.62862 4.39024 8.5C4.39024 7.95951 4.82439 7.52174 5.36683 7.52174H19.0234ZM1.46341 0C1.85154 0 2.22376 0.1546 2.49821 0.429789C2.77265 0.704978 2.92683 1.07821 2.92683 1.46739C2.92683 1.85657 2.77265 2.2298 2.49821 2.50499C2.22376 2.78018 1.85154 2.93478 1.46341 2.93478C1.07529 2.93478 0.703068 2.78018 0.428624 2.50499C0.154181 2.2298 0 1.85657 0 1.46739C0 1.07821 0.154181 0.704978 0.428624 0.429789C0.703068 0.1546 1.07529 0 1.46341 0ZM19.0234 0.48913C19.5629 0.48913 20 0.923478 20 1.46739C20 2.00788 19.5659 2.44565 19.0234 2.44565H5.36683C5.23856 2.44604 5.11147 2.42101 4.99288 2.37199C4.87428 2.32298 4.76651 2.25095 4.67576 2.16005C4.58502 2.06914 4.51308 1.96116 4.46408 1.84229C4.41508 1.72342 4.38999 1.59601 4.39024 1.46739C4.39024 0.926902 4.82439 0.48913 5.36683 0.48913H19.0234Z" fill="#1F1F1F"/>
</svg>
