<svg width="32" height="32" viewBox="0 0 32 32" fill="none" xmlns="http://www.w3.org/2000/svg">
<path d="M7.33333 13.5871C7.33254 11.7782 7.89267 10.0139 8.93588 8.53942C9.97908 7.06494 11.4536 5.95352 13.1544 5.35958C13.0886 4.94502 13.113 4.52104 13.2261 4.1169C13.3392 3.71275 13.5382 3.33806 13.8094 3.01868C14.0806 2.69929 14.4175 2.44282 14.797 2.26695C15.1764 2.09108 15.5893 2 16.0072 2C16.4251 2 16.838 2.09108 17.2175 2.26695C17.5969 2.44282 17.9339 2.69929 18.2051 3.01868C18.4763 3.33806 18.6753 3.71275 18.7884 4.1169C18.9014 4.52104 18.9259 4.94502 18.86 5.35958C20.5582 5.95595 22.0295 7.06842 23.07 8.54268C24.1105 10.0169 24.6685 11.7799 24.6667 13.5871V22.2936L29 25.1957V26.6468H3V25.1957L7.33333 22.2936V13.5871ZM18.8889 28.0979C18.8889 28.8676 18.5845 29.6057 18.0428 30.15C17.501 30.6942 16.7662 31 16 31C15.2338 31 14.499 30.6942 13.9572 30.15C13.4155 29.6057 13.1111 28.8676 13.1111 28.0979H18.8889Z" fill="black"/>
</svg>
